<svg width="30" height="31" viewBox="0 0 30 31" fill="none" xmlns="http://www.w3.org/2000/svg">
<path d="M25.6055 0.5L4.39453 0.5C1.97159 0.5 0 2.47159 0 4.89453L0 26.1055C0 28.5284 1.97159 30.5 4.39453 30.5L13.2422 30.5L13.2422 19.8945L9.72656 19.8945L9.72656 14.6211H13.2422V11.0469C13.2422 8.13893 15.6077 5.77344 18.5156 5.77344L23.8477 5.77344V11.0469H18.5156L18.5156 14.6211H23.8477L22.9687 19.8945H18.5156V30.5H25.6055C28.0284 30.5 30 28.5284 30 26.1055L30 4.89453C30 2.47159 28.0284 0.5 25.6055 0.5Z" fill="black"/>
</svg>
