<svg width="30" height="31" viewBox="0 0 30 31" fill="none" xmlns="http://www.w3.org/2000/svg">
<path d="M15 30.5C23.2863 30.5 30 23.7863 30 15.5C30 7.21375 23.2863 0.5 15 0.5C6.71375 0.5 0 7.21375 0 15.5C0 23.7863 6.71375 30.5 15 30.5ZM6.86375 15.175L21.3263 9.59875C21.9975 9.35625 22.5837 9.7625 22.3662 10.7775L22.3675 10.7762L19.905 22.3775C19.7225 23.2 19.2337 23.4 18.55 23.0125L14.8 20.2487L12.9912 21.9913C12.7912 22.1913 12.6225 22.36 12.235 22.36L12.5013 18.5438L19.4513 12.265C19.7537 11.9987 19.3837 11.8488 18.985 12.1138L10.3963 17.5212L6.69375 16.3663C5.89 16.1112 5.8725 15.5625 6.86375 15.175Z" fill="black"/>
</svg>
