<svg width="30" height="31" viewBox="0 0 30 31" fill="none" xmlns="http://www.w3.org/2000/svg">
<path d="M-9.01547e-07 9.875L-4.09794e-07 21.125C-1.83506e-07 26.3019 4.19812 30.5 9.375 30.5L20.625 30.5C25.8019 30.5 30 26.3019 30 21.125L30 9.875C30 4.69813 25.8019 0.500001 20.625 0.500001L9.375 0.500001C4.19812 0.500002 -1.12784e-06 4.69813 -9.01547e-07 9.875ZM20.625 3.3125C24.2437 3.3125 27.1875 6.25625 27.1875 9.875L27.1875 21.125C27.1875 24.7437 24.2437 27.6875 20.625 27.6875L9.375 27.6875C5.75625 27.6875 2.8125 24.7437 2.8125 21.125L2.8125 9.875C2.8125 6.25625 5.75625 3.3125 9.375 3.3125L20.625 3.3125Z" fill="black"/>
<path d="M7.5 15.5C7.5 19.6419 10.8581 23 15 23C19.1419 23 22.5 19.6419 22.5 15.5C22.5 11.3581 19.1419 8 15 8C10.8581 8 7.5 11.3581 7.5 15.5ZM19.6875 15.5C19.6875 18.0837 17.5837 20.1875 15 20.1875C12.4144 20.1875 10.3125 18.0838 10.3125 15.5C10.3125 12.9163 12.4144 10.8125 15 10.8125C17.5837 10.8125 19.6875 12.9162 19.6875 15.5Z" fill="black"/>
<path d="M7.93685 7.43715C7.93685 6.88521 7.48942 6.43777 6.93748 6.43777C6.38554 6.43777 5.93811 6.88521 5.93811 7.43715C5.93811 7.98909 6.38554 8.43652 6.93748 8.43652C7.48942 8.43652 7.93685 7.98909 7.93685 7.43715Z" fill="black"/>
</svg>
