<svg width="25" height="26" viewBox="0 0 25 26" fill="none" xmlns="http://www.w3.org/2000/svg">
<path d="M20.2645 19.6457L19.6145 20.0793L21.1449 22.375H3.85469L5.67773 19.6406H15.6023V18.8594H5.46875C5.40446 18.8594 5.34115 18.8752 5.28446 18.9055C5.22777 18.9359 5.17943 18.9797 5.14375 19.0332L2.8 22.5488C2.75732 22.6131 2.7345 22.6885 2.73438 22.7656V23.9375C2.73438 24.1447 2.81668 24.3434 2.9632 24.4899C3.10971 24.6364 3.30842 24.7188 3.51562 24.7188H21.4844C21.6916 24.7188 21.8903 24.6364 22.0368 24.4899C22.1833 24.3434 22.2656 24.1447 22.2656 23.9375V22.7656C22.2655 22.6885 22.2427 22.6131 22.2 22.5488L20.2645 19.6457ZM3.51562 23.9375V23.1562H21.4844V23.9375H3.51562Z" fill="black"/>
<path d="M20.3125 1.28125H4.6875C4.37698 1.28218 4.07945 1.40594 3.85988 1.62551C3.64032 1.84508 3.51655 2.14261 3.51562 2.45312V12.6094C3.51655 12.9199 3.64032 13.2174 3.85988 13.437C4.07945 13.6566 4.37698 13.7803 4.6875 13.7812H10.1562V15.3438H8.59375C8.49015 15.3438 8.39079 15.3849 8.31754 15.4582C8.24428 15.5314 8.20312 15.6308 8.20312 15.7344V17.2969C8.20312 17.4005 8.24428 17.4998 8.31754 17.5731C8.39079 17.6463 8.49015 17.6875 8.59375 17.6875H16.4062C16.5099 17.6875 16.6092 17.6463 16.6825 17.5731C16.7557 17.4998 16.7969 17.4005 16.7969 17.2969V15.7344C16.7969 15.6308 16.7557 15.5314 16.6825 15.4582C16.6092 15.3849 16.5099 15.3438 16.4062 15.3438H14.8438V13.7812H20.3125C20.623 13.7803 20.9205 13.6566 21.1401 13.437C21.3597 13.2174 21.4834 12.9199 21.4844 12.6094V2.45312C21.4834 2.14261 21.3597 1.84508 21.1401 1.62551C20.9205 1.40594 20.623 1.28218 20.3125 1.28125ZM16.0156 16.125V16.9062H8.98438V16.125H16.0156ZM10.9375 15.3438V13.7812H14.0625V15.3438H10.9375ZM20.7031 12.6094C20.7031 12.713 20.662 12.8123 20.5887 12.8856C20.5155 12.9588 20.4161 13 20.3125 13H4.6875C4.5839 13 4.48454 12.9588 4.41129 12.8856C4.33803 12.8123 4.29688 12.713 4.29688 12.6094V11.4375H20.7031V12.6094ZM20.7031 10.6562H4.29688V2.45312C4.29688 2.34952 4.33803 2.25017 4.41129 2.17691C4.48454 2.10366 4.5839 2.0625 4.6875 2.0625H20.3125C20.4161 2.0625 20.5155 2.10366 20.5887 2.17691C20.662 2.25017 20.7031 2.34952 20.7031 2.45312V10.6562Z" fill="black"/>
<path d="M18.3594 11.8281H19.1406V12.6094H18.3594V11.8281Z" fill="black"/>
<path d="M8.98438 9.875H10.5469C10.6505 9.875 10.7498 9.83385 10.8231 9.76059C10.8963 9.68733 10.9375 9.58798 10.9375 9.48438V9.09375H14.0625V9.48438C14.0625 9.58798 14.1037 9.68733 14.1769 9.76059C14.2502 9.83385 14.3495 9.875 14.4531 9.875H16.0156C16.1192 9.875 16.2186 9.83385 16.2918 9.76059C16.3651 9.68733 16.4062 9.58798 16.4062 9.48438V7.92188C16.4062 7.81827 16.3651 7.71892 16.2918 7.64566C16.2186 7.5724 16.1192 7.53125 16.0156 7.53125H15.625V5.1875H16.0156C16.1192 5.1875 16.2186 5.14634 16.2918 5.07309C16.3651 4.99983 16.4062 4.90048 16.4062 4.79688V3.23438C16.4062 3.13077 16.3651 3.03142 16.2918 2.95816C16.2186 2.88491 16.1192 2.84375 16.0156 2.84375H14.4531C14.3495 2.84375 14.2502 2.88491 14.1769 2.95816C14.1037 3.03142 14.0625 3.13077 14.0625 3.23438V3.625H10.9375V3.23438C10.9375 3.13077 10.8963 3.03142 10.8231 2.95816C10.7498 2.88491 10.6505 2.84375 10.5469 2.84375H8.98438C8.88077 2.84375 8.78142 2.88491 8.70816 2.95816C8.6349 3.03142 8.59375 3.13077 8.59375 3.23438V4.79688C8.59375 4.90048 8.6349 4.99983 8.70816 5.07309C8.78142 5.14634 8.88077 5.1875 8.98438 5.1875H9.375V7.53125H8.98438C8.88077 7.53125 8.78142 7.5724 8.70816 7.64566C8.6349 7.71892 8.59375 7.81827 8.59375 7.92188V9.48438C8.59375 9.58798 8.6349 9.68733 8.70816 9.76059C8.78142 9.83385 8.88077 9.875 8.98438 9.875ZM15.625 9.09375H14.8438V8.3125H15.625V9.09375ZM14.8438 3.625H15.625V4.40625H14.8438V3.625ZM9.375 3.625H10.1562V4.40625H9.375V3.625ZM10.1562 5.1875H10.5469C10.6505 5.1875 10.7498 5.14634 10.8231 5.07309C10.8963 4.99983 10.9375 4.90048 10.9375 4.79688V4.40625H14.0625V4.79688C14.0625 4.90048 14.1037 4.99983 14.1769 5.07309C14.2502 5.14634 14.3495 5.1875 14.4531 5.1875H14.8438V7.53125H14.4531C14.3495 7.53125 14.2502 7.5724 14.1769 7.64566C14.1037 7.71892 14.0625 7.81827 14.0625 7.92188V8.3125H10.9375V7.92188C10.9375 7.81827 10.8963 7.71892 10.8231 7.64566C10.7498 7.5724 10.6505 7.53125 10.5469 7.53125H10.1562V5.1875ZM9.375 8.3125H10.1562V9.09375H9.375V8.3125Z" fill="black"/>
<path d="M8.98438 20.8125H14.4531V21.5938H8.98438V20.8125Z" fill="black"/>
<path d="M23.3867 14.8906L22.2813 13.7852C22.2449 13.7488 22.2016 13.72 22.154 13.7006C22.1064 13.6811 22.0553 13.6714 22.0039 13.6719C21.9531 13.6714 21.9026 13.6812 21.8556 13.7006C21.8086 13.7201 21.7661 13.7489 21.7305 13.7852L16.4805 19.0352C16.4377 19.0779 16.4055 19.1301 16.3867 19.1875L16.1094 20.0156C16.0871 20.0843 16.084 20.1577 16.1005 20.228C16.1171 20.2982 16.1526 20.3626 16.2031 20.4141L15.6523 20.9688L16.2031 21.5195L16.7578 20.9688C16.7936 21.0048 16.8363 21.0333 16.8832 21.0528C16.9301 21.0722 16.9804 21.0822 17.0312 21.082C17.0736 21.0816 17.1157 21.075 17.1562 21.0625L17.9844 20.7852C18.0418 20.7664 18.094 20.7342 18.1367 20.6914L23.3867 15.4414C23.4595 15.3682 23.5003 15.2692 23.5003 15.166C23.5003 15.0628 23.4595 14.9638 23.3867 14.8906ZM17.6523 20.0742L17.1406 20.2422L16.9258 20.0313L17.0977 19.5195L20.8984 15.7188L21.4531 16.2695L17.6523 20.0742ZM22.0039 15.7188L21.4531 15.168L22.0039 14.6133L22.5586 15.168L22.0039 15.7188Z" fill="black"/>
</svg>
