<svg width="25" height="26" viewBox="0 0 25 26" fill="none" xmlns="http://www.w3.org/2000/svg">
<g clip-path="url(#clip0_11_59)">
<path d="M22.5 4.25H11.25V5.08333H22.5V4.25Z" fill="black"/>
<path d="M18.3333 5.91663H11.25V6.74996H18.3333V5.91663Z" fill="black"/>
<path d="M18.3333 7.58337H11.25V8.41671H18.3333V7.58337Z" fill="black"/>
<path d="M22.5 2.58337H14.5833V3.41671H22.5V2.58337Z" fill="black"/>
<path d="M13.75 2.58337H12.9167V3.41671H13.75V2.58337Z" fill="black"/>
<path d="M12.9166 17.1666H12.0833V18H12.9166V17.1666Z" fill="black"/>
<path d="M6.96124 3.29461L6.37207 2.70544L5.53874 3.53878C5.37608 3.70149 5.37608 3.96524 5.53874 4.12794L6.37207 4.96128L6.96124 4.37211L6.42249 3.83336L6.96124 3.29461Z" fill="black"/>
<path d="M10.2946 3.53878L9.46124 2.70544L8.87207 3.29461L9.41082 3.83336L8.87207 4.37211L9.46124 4.96128L10.2946 4.12794C10.4572 3.96524 10.4572 3.70149 10.2946 3.53878Z" fill="black"/>
<path d="M7.93836 2.45109L7.10425 4.95105L7.89435 5.21467L8.72846 2.71471L7.93836 2.45109Z" fill="black"/>
<path d="M21.6667 13.4167V10.0833H20.8334V13.4167H20V9.25H19.1667V13.4167H18.3334V11.3333H17.5V13.4167H16.6667V10.9167H15.8334V13.4167H15V11.75H14.1667V13.4167H13.3334V14.25H22.5V13.4167H21.6667Z" fill="black"/>
<path d="M22.0834 0.5H2.91669C1.53653 0.501354 0.418041 1.61984 0.416687 3V11.1775V11.1812V15.9167V17.1667C0.418041 18.5468 1.53653 19.6653 2.91669 19.6667H8.07585L6.40919 23H4.16669C3.47632 23 2.91669 23.5596 2.91669 24.25C2.91669 24.9404 3.47632 25.5 4.16669 25.5H20.8334C21.5237 25.5 22.0834 24.9404 22.0834 24.25C22.0834 23.5596 21.5237 23 20.8334 23H18.5909L16.9242 19.6667H22.0834C23.4635 19.6653 24.582 18.5468 24.5834 17.1667V3C24.582 1.61984 23.4635 0.501354 22.0834 0.5ZM1.25002 6.3625L2.1971 7.49C2.27627 7.58432 2.39315 7.63875 2.51627 7.63875H3.79169C3.91481 7.63875 4.03169 7.58432 4.11085 7.49L5.05835 6.3625L5.99335 6.66625L6.09669 8.13417C6.10523 8.25693 6.16762 8.36964 6.2671 8.44208L7.29919 9.19208C7.39903 9.26417 7.52549 9.2887 7.64502 9.25917L9.07544 8.90375L9.65377 9.69917L8.87419 10.9492C8.8096 11.054 8.79466 11.1819 8.83335 11.2987L9.22794 12.5117C9.26591 12.6286 9.35356 12.7229 9.46752 12.7692L10.8334 13.3229V14.3062L9.46669 14.86C9.35247 14.906 9.26466 15.0006 9.2271 15.1179L9.1021 15.5H6.70169C7.63544 13.545 6.80752 11.2032 4.85252 10.2694C3.70424 9.72099 2.36122 9.76359 1.25002 10.3837V6.3625ZM1.25002 11.375C2.59773 10.3236 4.54262 10.5638 5.59398 11.9116C6.40575 12.9521 6.46841 14.3929 5.75002 15.5H1.25002V11.375ZM20.8334 23.8333C21.0635 23.8333 21.25 24.0199 21.25 24.25C21.25 24.4801 21.0635 24.6667 20.8334 24.6667H4.16669C3.93658 24.6667 3.75002 24.4801 3.75002 24.25C3.75002 24.0199 3.93658 23.8333 4.16669 23.8333H20.8334ZM17.6592 23H7.34085L9.00752 19.6667H15.9925L17.6592 23ZM23.75 17.1667C23.75 18.0871 23.0038 18.8333 22.0834 18.8333H2.91669C1.99622 18.8333 1.25002 18.0871 1.25002 17.1667V16.3333H5.96752H5.97127H23.75V17.1667ZM23.75 15.5H10.1063L11.4067 14.9729C11.5638 14.9092 11.6666 14.7566 11.6667 14.5871V13.0417C11.6667 12.872 11.5639 12.7192 11.4067 12.6554L9.95835 12.0696L9.68419 11.2258L10.51 9.90083C10.5996 9.75688 10.593 9.57302 10.4934 9.43583L9.58502 8.18583C9.48528 8.04849 9.31226 7.98536 9.14752 8.02625L7.63252 8.40125L6.91669 7.88125L6.8071 6.32708C6.79518 6.15766 6.68158 6.0124 6.52002 5.96L5.05127 5.4825C4.88966 5.43104 4.71299 5.48182 4.60335 5.61125L3.60044 6.805H2.71169L1.70835 5.61125C1.59867 5.48167 1.42174 5.43083 1.26002 5.4825L1.25002 5.48625V3C1.25002 2.07953 1.99622 1.33333 2.91669 1.33333H22.0834C23.0038 1.33333 23.75 2.07953 23.75 3V15.5Z" fill="black"/>
</g>
<defs>
<clipPath id="clip0_11_59">
<rect width="25" height="25" fill="white" transform="translate(0 0.5)"/>
</clipPath>
</defs>
</svg>
